<?xml version="1.0" encoding="utf-8" ?>
<svg baseProfile="full" height="300mm" version="1.1" viewBox="0,0,200,300" width="200mm" xmlns="http://www.w3.org/2000/svg" xmlns:ev="http://www.w3.org/2001/xml-events" xmlns:xlink="http://www.w3.org/1999/xlink"><defs /><rect fill="#222222" height="300" width="200" x="0" y="0" /><g id="header"><text fill="#FFFFFF" style="font-size:12px; font-family:Arial; font-weight:bold;" x="10" y="20">2021 Activities</text></g><g id="footer"><text fill="#FFFFFF" style="font-size:4px; font-family:Arial" x="10" y="280">ATHLETE</text><text fill="#FFFFFF" style="font-size:9px; font-family:Arial" x="10" y="290">Irving Bennett</text><text fill="#FFFFFF" style="font-size:4px; font-family:Arial" x="120" y="280">STATISTICS</text><text fill="#FFFFFF" style="font-size:3px; font-family:Arial" x="120" y="285">Number: 224</text><text fill="#FFFFFF" style="font-size:3px; font-family:Arial" x="120" y="290">Weekly: 4.5</text><text fill="#FFFFFF" style="font-size:3px; font-family:Arial" x="141" y="285">Total: 2761.0 km</text><text fill="#FFFFFF" style="font-size:3px; font-family:Arial" x="141" y="290">Avg: 12.3 km</text><text fill="#FFFFFF" style="font-size:3px; font-family:Arial" x="167" y="285">Min: 1.5 km</text><text fill="#FFFFFF" style="font-size:3px; font-family:Arial" x="167" y="290">Max: 162.0 km</text></g><g id="tracks"><g id="year2021"><text alignment-baseline="middle" fill="#FFFFFF" style="dominant-baseline: central; font-size:9.0px; font-family:Arial;" text-anchor="middle" x="100.0" y="150.0">2021</text><line stroke="#FFFFFF" stroke-width="0.3" x1="100.0" x2="100.0" y1="65.0" y2="60.0" /><path d="M 100.0 64.0 a86.0,86.0 0 0,1 42.46469731375804,11.215312516191453" fill="none" id="id1" stroke="none" /><text fill="#FFFFFF" style="font-size:6.75px; font-family:Arial;" text-anchor="middle"><textPath startOffset="22.20632615414155" xlink:href="#id1">January</textPath></text><path d="M 101.44485096284872 129.0497635885617 l 0.31097223198149654 -4.50907529213941 a25.519785804575882,25.519785804575882 0 0,0 0.4379800556828956,0.03399568175664549 l -0.3885424770267333 4.5030543481943" fill="#4dd2ff" stroke="none"><title>2021-01-05 11.6 km</title></path><path d="M 102.16513564639614 129.11191278185805 l 0.40192559814595785 -3.8775662685388212 a24.89834123100519,24.89834123100519 0 0,0 0.4259196760739866,0.04785703828348341 l -0.4686119777296698 3.870073276784737" fill="#4dd2ff" stroke="none"><title>2021-01-07 10.0 km</title></path><path d="M 105.01212808612495 129.60689891045803 l 1.3438074485504394 -5.4676178805230515 a26.630334248177014,26.630334248177014 0 0,0 0.44420806564205545,0.11323852663732345 l -1.43772440287752 5.4436763577168605" fill="#4dd2ff" stroke="none"><title>2021-01-15 14.5 km</title></path><path d="M 106.0581310904928 129.89281104454417 l 0.41272228479341344 -1.3698424221113334 a22.43066695837324,22.43066695837324 0 0,0 0.368733063518325,0.11456715773572458 l -0.4362407210224567 1.3625351294930883" fill="#4dd2ff" stroke="none"><title>2021-01-18 3.7 km</title></path><path d="M 106.40334571778207 130.00007090966164 l 2.1603495126277616 -6.747540889900258 a28.08494305394101,28.08494305394101 0 0,0 0.4591449231791166,0.15137286231747696 l -2.276177258049296 6.709354303323544" fill="#4dd2ff" stroke="none"><title>2021-01-19 18.2 km</title></path><path d="M 106.74666289553966 130.1132571854024 l 1.3719468785495315 -4.044007408024218 a25.27039039827936,25.27039039827936 0 0,0 0.41072566701330493,0.14329412041106412 l -1.4413545496261102 4.019792434440946" fill="#4dd2ff" stroke="none"><title>2021-01-20 11.0 km</title></path><path d="M 107.4271985657038 130.35727306442388 l 1.058276908756215 -2.7988270620517746 a23.992220402791208,23.992220402791208 0 0,0 0.3850372468942432,0.1493884698824302 l -1.1062973206501252 2.7801958882787976" fill="#4dd2ff" stroke="none"><title>2021-01-22 7.7 km</title></path><line stroke="#FFFFFF" stroke-width="0.3" x1="143.23703022742887" x2="145.7803849466894" y1="76.81831364943548" y2="72.5135085699905" /><path d="M 143.74570117128098 75.95735263354649 a86.0,86.0 0 0,1 28.547481713284135,27.462654790039103" fill="none" id="id2" stroke="none" /><text fill="#FFFFFF" style="font-size:6.75px; font-family:Arial;" text-anchor="middle"><textPath startOffset="19.985693538727396" xlink:href="#id2">February</textPath></text><path d="M 110.68208982089419 131.9198186663311 l 0.41894327714014534 -0.7090906878913756 a21.823603711207756,21.823603711207756 0 0,0 0.3217816933725461,0.19386986981701756 l -0.43108703673032894 0.7017742086157435" fill="#4dd2ff" stroke="none"><title>2021-02-01 2.1 km</title></path><path d="M 110.99172775467656 132.10637205687252 l 0.7041251083021591 -1.1462577125795943 a22.345250501501386,22.345250501501386 0 0,0 0.3260074661478145,0.20414584539377903 l -0.7237517268222369 1.1339675258628712" fill="#4dd2ff" stroke="none"><title>2021-02-02 3.5 km</title></path><path d="M 111.2981086023043 132.29822771554956 l 2.1430573159728183 -3.357722423746149 a24.98333962077957,24.98333962077957 0 0,0 0.36051312910125083,0.23448776749254965 l -2.2005374708583494 3.3203357320940716" fill="#4dd2ff" stroke="none"><title>2021-02-03 10.2 km</title></path><path d="M 111.60114157652 132.49532879139002 l 1.4505381778023634 -2.1886806320299366 a23.62571588605568,23.62571588605568 0 0,0 0.3370549319403367,0.22758099462691114 l -1.4879978041492419 2.1633877251043554" fill="#4dd2ff" stroke="none"><title>2021-02-04 6.8 km</title></path><path d="M 111.90073688211348 132.69761687909136 l 1.8460911041288617 -2.684016618142911 a24.257606110506767,24.257606110506767 0 0,0 0.34199627607459065,0.2395902469324418 l -1.8920185197871033 2.6518415284465333" fill="#4dd2ff" stroke="none"><title>2021-02-05 8.4 km</title></path><path d="M 112.19680574252982 132.90503203632744 l 3.073537415167781 -4.307851150258965 a26.291900771483128,26.291900771483128 0 0,0 0.3661518820276989,0.2660249140023234 l -3.1472346135492684 4.254307001439966" fill="#4dd2ff" stroke="none"><title>2021-02-06 13.6 km</title></path><path d="M 112.48926042617603 133.11751280151074 l 2.7003041299348207 -3.6501640889884444 a25.54041190539844,25.54041190539844 0 0,0 0.3511853415370946,0.264505518410072 l -2.7627356252302984 3.603141981072525" fill="#4dd2ff" stroke="none"><title>2021-02-07 11.7 km</title></path><path d="M 112.77801427241765 133.3349962120049 l 3.1271531143477835 -4.078412919661445 a26.139313042016067,26.139313042016067 0 0,0 0.3547072974986237,0.2768546719716 l -3.1968929670058377 4.023979858466621" fill="#4dd2ff" stroke="none"><title>2021-02-08 13.2 km</title></path><path d="M 113.06298171725822 133.55741782278167 l 3.5761350971357135 -4.501337939852087 a26.74898125598942,26.74898125598942 0 0,0 0.358049891567655,0.28951811161345137 l -3.6530883872678594 4.439113730974507" fill="#4dd2ff" stroke="none"><title>2021-02-09 14.8 km</title></path><path d="M 113.34407831869373 133.78471172551755 l 4.3251713056653225 -5.255806949186759 a27.80665949717411,27.80665949717411 0 0,0 0.36697171914218973,0.3073282612399177 l -4.41500056176663 5.180577530553022" fill="#4dd2ff" stroke="none"><title>2021-02-10 17.5 km</title></path><path d="M 113.6212207817346 134.01681056812373 l 11.524756704791848 -13.5231909474649 a38.76785610326247,38.76785610326247 0 0,0 0.5041781864271844,0.437218355015305 l -11.755828689865798 13.322807599029925" fill="#4dd2ff" stroke="none"><title>2021-02-11 45.7 km</title></path><path d="M 114.16331599549186 134.49514656593476 l 5.551500334352884 -6.077333800269876 a29.231229682266367,29.231229682266367 0 0,0 0.36858091270696186,0.34255578896212363 l -5.655289130854693 5.980873425233112" fill="#4dd2ff" stroke="none"><title>2021-02-13 21.2 km</title></path><path d="M 114.42810811169701 134.74124197986012 l 6.224715935290701 -6.583083067121399 a30.06002600126967,30.06002600126967 0 0,0 0.3729114509893878,0.35874052039443566 l -6.337110629892507 6.474959459964662" fill="#4dd2ff" stroke="none"><title>2021-02-14 23.3 km</title></path><path d="M 114.68862486808459 134.99185889309783 l 6.600959046772354 -6.744547274135714 a30.43724420952522,30.43724420952522 0 0,0 0.3712824908592773,0.36968808585034046 l -6.716077337798953 6.629923337635255" fill="#4dd2ff" stroke="none"><title>2021-02-15 24.3 km</title></path><path d="M 114.94478906791727 135.2469230424477 l 7.32570507785007 -7.231730758506817 a31.29387607518042,31.29387607518042 0 0,0 0.3751327112080573,0.3866072339961649 l -7.449102052761236 7.104559328960538" fill="#4dd2ff" stroke="none"><title>2021-02-16 26.5 km</title></path><path d="M 115.4437574822437 135.77008943001954 l 2.9055842013710524 -2.6772113837319433 a24.950934110364404,24.950934110364404 0 0,0 0.28830965878334286,0.3183587261853941 l -2.951237500770431 2.626799870277" fill="#4dd2ff" stroke="none"><title>2021-02-18 10.2 km</title></path><path d="M 115.68641384162765 136.03803664274997 l 3.220110071150221 -2.8661145417699925 a25.3108840667395,25.3108840667395 0 0,0 0.2868664927581811,0.32793799111002325 l -3.26896842748625 2.8102609944570216" fill="#4dd2ff" stroke="none"><title>2021-02-19 11.1 km</title></path><line stroke="#FFFFFF" stroke-width="0.3" x1="172.23445277983987" x2="176.4835382374775" y1="105.19839476539836" y2="102.56300622218649" /><path d="M 173.08426987136738 104.67131705675598 a86.0,86.0 0 0,1 12.851231095245387,41.99856678651699" fill="none" id="id3" stroke="none" /><text fill="#FFFFFF" style="font-size:6.75px; font-family:Arial;" text-anchor="middle"><textPath startOffset="22.20632615414155" xlink:href="#id3">March</textPath></text><path d="M 117.84615892207809 138.9313681185102 l 1.741013150749384 -1.079819682802293 a23.048691616239385,23.048691616239385 0 0,0 0.20621357261257808,0.33896089316697536 l -1.7593425216481862 1.0496910164282363" fill="#4dd2ff" stroke="none"><title>2021-03-01 5.3 km</title></path><path d="M 118.03404312379186 139.2402003453031 l 3.396946360050503 -2.0267480797844595 a24.955622877875285,24.955622877875285 0 0,0 0.216924167805862,0.3707937197823438 l -3.4313302023266923 1.9679749476482202" fill="#4dd2ff" stroke="none"><title>2021-03-02 10.2 km</title></path><path d="M 118.3937258080291 139.86733742301442 l 3.530712557705349 -1.9449849028377697 a25.030992115770644,25.030992115770644 0 0,0 0.2046485054668706,0.3791825999086636 l -3.563669162390684 1.8839213195966473" fill="#4dd2ff" stroke="none"><title>2021-03-04 10.4 km</title></path><path d="M 118.89224826269711 140.83032412892265 l 8.548671588143444 -4.1492439915868635 a30.50242135582561,30.50242135582561 0 0,0 0.2251976428193805,0.47432366833680023 l -8.61882742480458 4.001477907609523" fill="#4dd2ff" stroke="none"><title>2021-03-07 24.4 km</title></path><path d="M 119.34039704204932 141.81776055985344 l 3.6938811286476896 -1.562750743551001 a25.010853734437188,25.010853734437188 0 0,0 0.16433120989589015,0.3979410593975444 l -3.720234025429777 1.4989351137001534" fill="#4dd2ff" stroke="none"><title>2021-03-10 10.3 km</title></path><path d="M 119.61058180528143 142.48833698450437 l 3.5746222129887326 -1.369227988148987 a24.827885741388187,24.827885741388187 0 0,0 0.1494348016627329,0.4004109741470237 l -3.597661603153091 1.30749387697263" fill="#4dd2ff" stroke="none"><title>2021-03-12 9.8 km</title></path><path d="M 119.97218684219823 143.5106431181261 l 2.2016446060834283 -0.7153576966214443 a23.314946134494665,23.314946134494665 0 0,0 0.12073202563647399,0.3827535142687637 l -2.2136321154881085 0.6773540159262614" fill="#4dd2ff" stroke="none"><title>2021-03-15 6.0 km</title></path><path d="M 120.18372546131832 144.20196356495316 l 3.790747798477282 -1.0889413797154042 a24.944054031084875,24.944054031084875 0 0,0 0.11499592504364074,0.41370152694922807 l -3.808930494087286 1.0235285493472241" fill="#4dd2ff" stroke="none"><title>2021-03-17 10.1 km</title></path><path d="M 120.37134235888165 144.90015583598534 l 4.282461929781124 -1.0720888243619966 a25.41461828784172,25.41461828784172 0 0,0 0.10258695355716715,0.4252891522898342 l -4.300281683599111 0.9982144404127563" fill="#4dd2ff" stroke="none"><title>2021-03-19 11.4 km</title></path><path d="M 120.6074358757038 145.95851677861256 l 2.12638238411623 -0.4170212528862738 a23.166889191638248,23.166889191638248 0 0,0 0.07337756494487253,0.39198588603736556 l -2.1332456729709617 0.3803572893863454" fill="#4dd2ff" stroke="none"><title>2021-03-22 5.6 km</title></path><path d="M 120.73433829027371 146.67025291283417 l 3.8733301952036983 -0.6220217763670294 a24.922957798823678,24.922957798823678 0 0,0 0.06437731326891541,0.424166059005441 l -3.8834634019119134 0.5552566049695062" fill="#4dd2ff" stroke="none"><title>2021-03-24 10.1 km</title></path><path d="M 120.91429891909075 148.10471618934812 l 7.997208287064222 -0.724718502662708 a29.029978660917497,29.029978660917497 0 0,0 0.0408154811748877,0.49805225215638227 l -8.008498252058605 0.586952333298557" fill="#4dd2ff" stroke="none"><title>2021-03-28 20.7 km</title></path><path d="M 120.96714384426684 148.82574320788734 l 3.600238704542439 -0.20162997799969062 a24.605880388714187,24.605880388714187 0 0,0 0.020043706175670046,0.4230909581013161 l -3.6031760189516056 0.13962791327537477" fill="#4dd2ff" stroke="none"><title>2021-03-30 9.3 km</title></path><line stroke="#FFFFFF" stroke-width="0.3" x1="184.98032266829074" x2="189.97916517819016" y1="148.1711317179211" y2="148.06355123074" /><path d="M 185.9800911702706 148.1496156204849 a86.0,86.0 0 0,1 -9.607161424134198,41.387399972396054" fill="none" id="id4" stroke="none" /><text fill="#FFFFFF" style="font-size:6.75px; font-family:Arial;" text-anchor="middle"><textPath startOffset="21.466115282336823" xlink:href="#id4">April</textPath></text><path d="M 120.99513854157772 149.54816195383933 l 3.816301627953527 -0.08213093082093646 a24.817185298792587,24.817185298792587 0 0,0 0.005515315578466631,0.42716726964325913 l -3.8171499506497093 0.016427403117214596" fill="#4dd2ff" stroke="none"><title>2021-04-01 9.8 km</title></path><path d="M 120.9764740272857 150.99374915477105 l 1.2016933563818546 0.0569295752777663 a22.20304110458188,22.20304110458188 0 0,0 -0.021371642005608666,0.38160502466718027 l -1.2005353634887166 -0.07760631628036987" fill="#4dd2ff" stroke="none"><title>2021-04-05 3.1 km</title></path><path d="M 120.92983693683757 151.71520430193888 l 3.784990945807406 0.3101807612090006 a24.797679365674284,24.797679365674284 0 0,0 -0.038525442890322,0.4251250520213247 l -3.7790909066400085 -0.37528720177889596" fill="#4dd2ff" stroke="none"><title>2021-04-07 9.8 km</title></path><path d="M 120.8583938346157 152.43462659150552 l 3.6653475115730707 0.42782548788463587 a24.69023129744988,24.69023129744988 0 0,0 -0.052905864034832356,0.42171179090157 l -3.65744013829139 -0.4908550330736008" fill="#4dd2ff" stroke="none"><title>2021-04-09 9.5 km</title></path><path d="M 120.81339534386255 152.79330883721812 l 6.1440876704209275 0.8245811941246028 a27.199173126113063,27.199173126113063 0 0,0 -0.06627007164577756,0.4634927267413488 l -6.128983547758549 -0.930219392846361" fill="#4dd2ff" stroke="none"><title>2021-04-10 15.9 km</title></path><path d="M 120.76222939487914 153.1511633652377 l 0.5847417855741257 0.08874850854308226 a21.59143829227151,21.59143829227151 0 0,0 -0.05893254112997626,0.36697298987186566 l -0.583127490082861 -0.09880072810815285" fill="#4dd2ff" stroke="none"><title>2021-04-11 1.5 km</title></path><path d="M 120.70491114924044 153.5080841355445 l 1.5717142737479728 0.26629942382275706 a22.59411453209343,22.59411453209343 0 0,0 -0.06827033091700783,0.3828962717027693 l -1.5668975004917762 -0.2933144462587447" fill="#4dd2ff" stroke="none"><title>2021-04-12 4.1 km</title></path><path d="M 120.32669344350535 155.2749913415812 l 25.80795281927916 6.697435962420704 a47.66282200354766,47.66282200354766 0 0,0 -0.21292100091106064,0.7923582529465938 l -25.68884374202632 -7.140685148542846" fill="#4dd2ff" stroke="none"><title>2021-04-17 68.6 km</title></path><path d="M 120.13307415673323 155.9715429329011 l 1.375547606158884 0.40799241697920097 a22.434778390247764,22.434778390247764 0 0,0 -0.1129999484974369,0.3692903698228872 l -1.3683208851553144 -0.43160975935414525" fill="#4dd2ff" stroke="none"><title>2021-04-19 3.7 km</title></path><path d="M 119.54520255179757 157.68017299344265 l 0.9125650373825905 0.3585870924740643 a21.98048949527371,21.98048949527371 0 0,0 -0.14140507943592026,0.3509558106137939 l -0.9062573436892778 -0.3742422709306717" fill="#4dd2ff" stroke="none"><title>2021-04-24 2.5 km</title></path><path d="M 119.41010516605496 158.01547362559984 l 1.0148831136729675 0.41909967829224665 a22.098012875499737,22.098012875499737 0 0,0 -0.1482134967197077,0.350332924686237 l -1.0075186357609507 -0.43650712864464714" fill="#4dd2ff" stroke="none"><title>2021-04-25 2.8 km</title></path><path d="M 118.64920377521936 159.65438752849417 l 3.53154667630811 1.8282239069824882 a24.976710271192154,24.976710271192154 0 0,0 -0.20094059776721263,0.3801038845341399 l -3.4995535703160043 -1.8887428066027625" fill="#4dd2ff" stroke="none"><title>2021-04-30 10.2 km</title></path><line stroke="#FFFFFF" stroke-width="0.3" x1="174.80103733775053" x2="179.2010983576182" y1="190.37084112569926" y2="192.7455964860345" /><path d="M 175.68104954172406 190.8457921977663 a86.0,86.0 0 0,1 -30.038265399797805,32.042727171017184" fill="none" id="id5" stroke="none" /><text fill="#FFFFFF" style="font-size:6.75px; font-family:Arial;" text-anchor="middle"><textPath startOffset="22.206326154141568" xlink:href="#id5">May</textPath></text><path d="M 118.48025628344425 159.97397251340806 l 3.0783272170957403 1.661402882063631 a24.49805059883955,24.49805059883955 0 0,0 -0.20347799747086623,0.36937166958928136 l -3.049272810173364 -1.7141450700507175" fill="#4dd2ff" stroke="none"><title>2021-05-01 9.0 km</title></path><path d="M 118.12598468904814 160.60418214915194 l 1.8536455343570433 1.0844318376899376 a23.14755539570866,23.14755539570866 0 0,0 -0.20416047333904447,0.3421846966047242 l -1.8347041853197716 -1.116178628180766" fill="#4dd2ff" stroke="none"><title>2021-05-03 5.5 km</title></path><path d="M 117.75023020441432 161.22182372390054 l 3.0412296822736185 1.9226873682957222 a24.59802788990664,24.59802788990664 0 0,0 -0.22934163006473318,0.3559433028701099 l -3.0076831888318347 -1.974752271087285" fill="#4dd2ff" stroke="none"><title>2021-05-05 9.3 km</title></path><path d="M 117.55443506779139 161.5257021239791 l 3.286257870764602 2.157655838809061 a24.93128089964443,24.93128089964443 0 0,0 -0.23862428756959692,0.3567109329480473 l -3.248630477784284 -2.213903685962915" fill="#4dd2ff" stroke="none"><title>2021-05-06 10.1 km</title></path><path d="M 117.35343817320211 161.82616520977328 l 3.0039591076392345 2.047163008031711 a24.63519555207449,24.63519555207449 0 0,0 -0.24182270776133394,0.3483636465199995 l -2.968275492715764 -2.0985679167387303" fill="#4dd2ff" stroke="none"><title>2021-05-07 9.3 km</title></path><path d="M 117.14729908036423 162.12312394758627 l 1.7547835532284528 1.240630283362533 a23.149053005087886,23.149053005087886 0 0,0 -0.23283560866870662,0.32338829606301384 l -1.7331681521841433 -1.270652184876678" fill="#4dd2ff" stroke="none"><title>2021-05-08 5.5 km</title></path><path d="M 116.93607887273984 162.41649034213515 l 1.2470733372098097 0.9142773934717079 a22.546316610721437,22.546316610721437 0 0,0 -0.23216128307589567,0.3110179779348188 l -1.2311507874388221 -0.9356082509158417" fill="#4dd2ff" stroke="none"><title>2021-05-09 4.0 km</title></path><path d="M 116.71984013943494 162.70617746262582 l 1.8319368939409817 1.3921733150932105 a23.300899676787267,23.300899676787267 0 0,0 -0.245428579104336,0.3172495225977561 l -1.8077014976185772 -1.4235008318042195" fill="#4dd2ff" stroke="none"><title>2021-05-10 5.9 km</title></path><path d="M 116.498646956653 162.99209946851258 l 2.419819636789564 1.9055221618856777 a24.08002301680196,24.08002301680196 0 0,0 -0.25924104197170295,0.3234430599921393 l -2.386660682763007 -1.9468930554560673" fill="#4dd2ff" stroke="none"><title>2021-05-11 7.9 km</title></path><path d="M 116.27256486870786 163.27417163493433 l 3.145414262155438 2.565838213932222 a25.059206402813945,25.059206402813945 0 0,0 -0.27553671418586045,0.3319017222192964 l -3.100781548076034 -2.619601193265289" fill="#4dd2ff" stroke="none"><title>2021-05-12 10.4 km</title></path><path d="M 116.0416608686014 163.55231037782056 l 2.614146242982445 2.2084821233975123 a24.422156318619244,24.422156318619244 0 0,0 -0.27406019375790286,0.31879392070431073 l -2.5757435396537636 -2.253153143263351" fill="#4dd2ff" stroke="none"><title>2021-05-13 8.8 km</title></path><path d="M 115.80600337817218 163.826433278659 l 2.95196521791791 2.5822561940502404 a24.922007865814138,24.922007865814138 0 0,0 -0.28522781140680625,0.3204564697948152 l -2.9070785568627655 -2.632686833585922" fill="#4dd2ff" stroke="none"><title>2021-05-14 10.1 km</title></path><path d="M 115.07121518719521 164.6239007375343 l 1.6031871431978633 1.555604465506933 a23.233856367186583,23.233856367186583 0 0,0 -0.28097407812191283,0.2846252577117433 l -1.5761724400204147 -1.582970217199341" fill="#4dd2ff" stroke="none"><title>2021-05-17 5.7 km</title></path><path d="M 114.81725581225074 164.88116024355367 l 1.7370298407345635 1.7445213699039903 a23.46183416940582,23.46183416940582 0 0,0 -0.28863647500081957,0.2824915407134259 l -1.7067434133579498 -1.7741630135399882" fill="#4dd2ff" stroke="none"><title>2021-05-18 6.3 km</title></path><path d="M 114.55890576462653 165.1340101406311 l 2.7270282271250483 2.8347510115336174 a24.93350940623353,24.93350940623353 0 0,0 -0.3118637830427276,0.2948866724227702 l -2.677828609691513 -2.881272320702309" fill="#4dd2ff" stroke="none"><title>2021-05-19 10.1 km</title></path><path d="M 114.29624159901734 165.38237550388516 l 2.6550667586664245 2.856781174745775 a24.900074124084988,24.900074124084988 0 0,0 -0.3164686191441317,0.28908658018962735 l -2.605498590055429 -2.9020605215219852" fill="#4dd2ff" stroke="none"><title>2021-05-20 10.0 km</title></path><path d="M 114.0293411484842 165.62618273729856 l 2.5073670132533366 2.7927594549088592 a24.753184609386246,24.753184609386246 0 0,0 -0.3195019037280524,0.2819232821906446 l -2.4589227566186964 -2.8355058788717926" fill="#4dd2ff" stroke="none"><title>2021-05-21 9.7 km</title></path><path d="M 112.92097659922987 166.55440617244102 l 1.9272395687535893 2.4691869355021185 a24.13227337214105,24.13227337214105 0 0,0 -0.329659806981367,0.2527690825779973 l -1.8844510332787285 -2.5019953599074873" fill="#4dd2ff" stroke="none"><title>2021-05-25 8.1 km</title></path><path d="M 112.63410532772338 166.77436683061367 l 2.4422094050394176 3.2425340279071406 a25.0593612428803,25.0593612428803 0 0,0 -0.34679176232816866,0.256548255150261 l -2.386032672292685 -3.284092231797171" fill="#4dd2ff" stroke="none"><title>2021-05-26 10.4 km</title></path><path d="M 112.34349029814194 166.9893568818739 l 1.9161878682636078 2.6374063381042276 a24.26001351818562,24.26001351818562 0 0,0 -0.33995519068660307,0.24254900218475622 l -1.87050534972812 -2.669999602133203" fill="#4dd2ff" stroke="none"><title>2021-05-27 8.4 km</title></path><path d="M 112.04921762599082 167.19931262002967 l 2.0230483997708784 2.887742835522806 a24.525873439579023,24.525873439579023 0 0,0 -0.34785059774233795,0.2392548129982744 l -1.9730409174056573 -2.9221384378861743" fill="#4dd2ff" stroke="none"><title>2021-05-28 9.1 km</title></path><path d="M 111.45004920935366 167.60387380957326 l 4.68469406451352 7.202481110804594 a29.591978388565998,29.591978388565998 0 0,0 -0.4293911584966671,0.2740577532920839 l -4.560021103969923 -7.282053292920486" fill="#4dd2ff" stroke="none"><title>2021-05-30 22.1 km</title></path><path d="M 111.1453310114006 167.79835938074945 l 1.3261739122275353 2.1178123706739465 a23.49877299546247,23.49877299546247 0 0,0 -0.34467194565101944,0.21172566029158854 l -1.2895227666442073 -2.140326497793913" fill="#4dd2ff" stroke="none"><title>2021-05-31 6.4 km</title></path><line stroke="#FFFFFF" stroke-width="0.3" x1="143.8653032363475" x2="146.44561519142675" y1="222.8068346515853" y2="227.08958963109032" /><path d="M 144.38136562736335 223.6633856474863 a86.0,86.0 0 0,1 -40.68145358897372,12.25698825130547" fill="none" id="id6" stroke="none" /><text fill="#FFFFFF" style="font-size:6.75px; font-family:Arial;" text-anchor="middle"><textPath startOffset="21.466115282336833" xlink:href="#id6">June</textPath></text><path d="M 110.8373102113329 167.98757091392108 l 1.8497496289138224 3.0701808819952845 a24.584352708347236,24.584352708347236 0 0,0 -0.36435430632419386,0.21526694644023409 l -1.7966274515612464 -3.101566400729268" fill="#4dd2ff" stroke="none"><title>2021-06-01 9.2 km</title></path><path d="M 110.5260780823613 168.17145234162732 l 1.8997956154021887 3.2796683830383646 a24.79017784318927,24.79017784318927 0 0,0 -0.3710868082499674,0.21071277449511572 l -1.843060040231022 -3.311884323328109" fill="#4dd2ff" stroke="none"><title>2021-06-02 9.7 km</title></path><path d="M 110.21172684928248 168.3499491758327 l 1.3610008134552807 2.4456486276781026 a23.798842693737846,23.798842693737846 0 0,0 -0.3596766559485177,0.19612439073571522 l -1.3187013456381145 -2.468713670173589" fill="#4dd2ff" stroke="none"><title>2021-06-03 7.2 km</title></path><path d="M 109.89434966115114 168.52300852407294 l 1.9302564170398109 3.613593342759946 a25.096821534111825,25.096821534111825 0 0,0 -0.38279715500214134,0.2002613793862792 l -1.8677683595111738 -3.6462841410909417" fill="#4dd2ff" stroke="none"><title>2021-06-04 10.5 km</title></path><path d="M 108.59647513512805 169.15986991738527 l 1.6663056314493043 3.7138709342290963 a25.07055423419359,25.07055423419359 0 0,0 -0.39525438961014325,0.17326790894929955 l -1.6021305671814072 -3.7420033964728505" fill="#4dd2ff" stroke="none"><title>2021-06-08 10.5 km</title></path><path d="M 108.2653958097858 169.30500536409082 l 1.5368688834399133 3.589575468797867 a24.904743014729814,24.904743014729814 0 0,0 -0.3955448852044588,0.16533779409510382 l -1.4748525387379934 -3.615498305912944" fill="#4dd2ff" stroke="none"><title>2021-06-09 10.0 km</title></path><path d="M 107.93186726928326 169.44442032107085 l 0.7677783164752543 1.8821550830486864 a23.03273001155972,23.03273001155972 0 0,0 -0.3683908843857568,0.1465903356184761 l -0.7352663560476312 -1.8950922630732314" fill="#4dd2ff" stroke="none"><title>2021-06-10 5.2 km</title></path><path d="M 107.59598834532513 169.57807347666477 l 1.4329930384121166 3.693428915652278 a24.96167719572329,24.96167719572329 0 0,0 -0.4019183999830095,0.15197114808317283 l -1.3692044176688323 -3.7175483138420815" fill="#4dd2ff" stroke="none"><title>2021-06-11 10.2 km</title></path><path d="M 106.91757812671514 169.82793768551818 l 2.336520404410003 6.697196638902675 a28.093079050761634,28.093079050761634 0 0,0 -0.4579576787648964,0.15536410903763662 l -2.2208929927078795 -6.736423734838435" fill="#4dd2ff" stroke="none"><title>2021-06-13 18.2 km</title></path><path d="M 106.2309692047433 170.05430185196036 l 0.6040334912402748 1.9440747601199155 a23.035751244989235,23.035751244989235 0 0,0 -0.37967857087904944,0.1143940388550488 l -0.5704799459209795 -1.95418416808069" fill="#4dd2ff" stroke="none"><title>2021-06-15 5.2 km</title></path><path d="M 105.88484417918355 170.15858648285462 l 1.0950191039062127 3.750997755310807 a24.907563307006846,24.907563307006846 0 0,0 -0.4125983310937645,0.11660440970043193 l -1.0302896047078425 -3.769290958349758" fill="#4dd2ff" stroke="none"><title>2021-06-16 10.0 km</title></path><path d="M 105.18746579009965 170.34920634021253 l 1.0090248347943567 3.958166741998846 a25.08475397970276,25.08475397970276 0 0,0 -0.41932954702853886,0.10306100042242304 l -0.9407420030226067 -3.9749490007352994" fill="#4dd2ff" stroke="none"><title>2021-06-18 10.5 km</title></path><path d="M 104.48393922423573 170.5157083483208 l 1.2758079349410736 5.837301130276985 a26.97509584629331,26.97509584629331 0 0,0 -0.45447710662759483,0.09524009649195096 l -1.1751393668841008 -5.858397207495477" fill="#4dd2ff" stroke="none"><title>2021-06-20 15.4 km</title></path><path d="M 104.13013068566511 170.58985236759426 l 0.5780452278897351 2.881716538740804 a23.939120020539885,23.939120020539885 0 0,0 -0.40472204218793073,0.07756594263189576 l -0.5283555711301 -2.891239679721168" fill="#4dd2ff" stroke="none"><title>2021-06-21 7.6 km</title></path><path d="M 103.7750983002368 170.65789516924582 l 0.7052148244520308 3.8590396214091363 a24.922947201815553,24.922947201815553 0 0,0 -0.42268253713687637,0.07348877705630145 l -0.6386833158431044 -3.870606976986444" fill="#4dd2ff" stroke="none"><title>2021-06-22 10.1 km</title></path><path d="M 103.41894727170886 170.7198165907248 l 0.6588565409288416 3.9928625985570463 a25.046856023196334,25.046856023196334 0 0,0 -0.4259923190879395,0.06653123926701097 l -0.590028358232385 -4.0036121451711635" fill="#4dd2ff" stroke="none"><title>2021-06-23 10.4 km</title></path><path d="M 103.06178313531738 170.7755982833777 l 0.5131516530004664 3.4819685555828293 a24.519578048721847,24.519578048721847 0 0,0 -0.41808380263858563,0.05794260545742217 l -0.45313925917505027 -3.490285726532854" fill="#4dd2ff" stroke="none"><title>2021-06-24 9.1 km</title></path><path d="M 102.70371172650421 170.82522371788508 l 0.8297362111008051 6.39100761135738 a27.44464432443249,27.44464432443249 0 0,0 -0.46900620153082845,0.056790119449476775 l -0.7196025865185963 -6.404343259532208" fill="#4dd2ff" stroke="none"><title>2021-06-25 16.6 km</title></path><path d="M 102.34483914955558 170.86867818915974 l 0.4870436262629715 4.334607217083394 a25.361883907244074,25.361883907244074 0 0,0 -0.43425270198656685,0.04501206811308211 l -0.41235832767080194 -4.342348653652235" fill="#4dd2ff" stroke="none"><title>2021-06-26 11.2 km</title></path><path d="M 101.98527174616119 170.90594882070397 l 0.33882909219376656 3.5680473839742732 a24.584099229653457,24.584099229653457 0 0,0 -0.42162395384597523,0.03637948883890552 l -0.2773608206062496 -3.5733511250918424" fill="#4dd2ff" stroke="none"><title>2021-06-27 9.2 km</title></path><path d="M 101.62511606390274 170.93702456842533 l 0.5491971970626166 7.075528611905065 a28.09681074139283,28.09681074139283 0 0,0 -0.4825122026996574,0.03327686652147909 l -0.4273222335840288 -7.083933822942829" fill="#4dd2ff" stroke="none"><title>2021-06-28 18.3 km</title></path><path d="M 100.90346689309514 170.98055641714683 l 0.17341603461025107 4.027114801422071 a25.03084690169357,25.03084690169357 0 0,0 -0.4306255031394987,0.014831613026826618 l -0.10407017979610006 -4.029503212874991" fill="#4dd2ff" stroke="none"><title>2021-06-30 10.4 km</title></path><line stroke="#FFFFFF" stroke-width="0.3" x1="102.19456741930631" x2="102.32365962044197" y1="234.97166512339345" y2="239.96999836594603" /><path d="M 102.22038585953345 235.97133177190398 a86.0,86.0 0 0,1 -42.740103519485714,-10.115201625700543" fill="none" id="id7" stroke="none" /><text fill="#FFFFFF" style="font-size:6.75px; font-family:Arial;" text-anchor="middle"><textPath startOffset="22.20632615414155" xlink:href="#id7">July</textPath></text><path d="M 100.54218724476979 170.99299961872075 l 0.10336003575205893 4.002007077933414 a25.00334159781798,25.00334159781798 0 0,0 -0.4303435971826136,0.00740875529473118 l -0.034456748676777386 -4.003193310507305" fill="#4dd2ff" stroke="none"><title>2021-07-01 10.3 km</title></path><path d="M 100.18074693466247 170.99922214144158 l 0.03748952865010641 4.355542413882045 a25.35570375299834,25.35570375299834 0 0,0 -0.4364729266251207,0.0 l 0.0374895286501034 -4.355542413882045" fill="#4dd2ff" stroke="none"><title>2021-07-02 11.2 km</title></path><path d="M 99.81925306533755 170.99922214144158 l -0.23110081249075665 26.849347722682438 a47.85034228308918,47.85034228308918 0 0,0 -0.8235734549305588,-0.01417856390745284 l 0.6932339573139834 -26.841391681495825" fill="#4dd2ff" stroke="none"><title>2021-07-03 69.1 km</title></path><path d="M 99.09653310690486 170.98055641714683 l -0.20310565385232826 4.71657529662412 a25.720946349552353,25.720946349552353 0 0,0 -0.44216992970880553,-0.022855134721032604 l 0.2842636519746227 -4.712380355140885" fill="#4dd2ff" stroke="none"><title>2021-07-05 12.1 km</title></path><path d="M 98.73552117531835 170.96189622390904 l -0.12593773887254012 2.087732717536471 a23.09152772249008,23.09152772249008 0 0,0 -0.3965554670112202,-0.027348786766972555 l 0.16185596666269036 -2.085255586253213" fill="#4dd2ff" stroke="none"><title>2021-07-06 5.4 km</title></path><path d="M 98.37488393609728 170.93702456842533 l -0.3036747789944903 3.91236444574298 a24.924132251557168,24.924132251557168 0 0,0 -0.4274556121790294,-0.036882668858219975 l 0.37097470891506135 -3.906557524606097" fill="#4dd2ff" stroke="none"><title>2021-07-07 10.1 km</title></path><path d="M 98.01472825383883 170.90594882070397 l -0.8759843369778353 9.224572783050201 a30.26607206902801,30.26607206902801 0 0,0 -0.5182234735623037,-0.05371598192267306 l 1.0346404071457325 -9.208127432671766" fill="#4dd2ff" stroke="none"><title>2021-07-08 23.8 km</title></path><path d="M 97.65516085044442 170.86867818915974 l -0.4417064271430804 3.931113690198976 a24.955851288035145,24.955851288035145 0 0,0 -0.4264747934134989,-0.05164015823478074 l 0.5093086436079686 -3.9229280032388467" fill="#4dd2ff" stroke="none"><title>2021-07-09 10.2 km</title></path><path d="M 97.2962882734958 170.82522371788508 l -1.0632237352831246 8.189435261304718 a29.258165329561432,29.258165329561432 0 0,0 -0.49888154661165135,-0.06914043654136613 l 1.204033873081607 -8.169920259270746" fill="#4dd2ff" stroke="none"><title>2021-07-10 21.2 km</title></path><path d="M 95.86986931433489 170.5898523675943 l -1.0209829211394976 5.089884368322867 a26.19127431447771,26.19127431447771 0 0,0 -0.44127126135749517,-0.09247268321757535 l 1.1084456439263795 -5.071555704378751" fill="#4dd2ff" stroke="none"><title>2021-07-14 13.4 km</title></path><path d="M 95.51606077576429 170.5157083483208 l -0.6549224335926236 2.9965164482462336 a24.067251900094465,24.067251900094465 0 0,0 -0.40396292163188763,-0.0919406457730573 l 0.706405504617374 -2.9847990688954895" fill="#4dd2ff" stroke="none"><title>2021-07-15 7.9 km</title></path><path d="M 95.16358092515715 170.4354850818985 l -0.9079118287467637 3.8362305550696174 a24.942203541222604,24.942203541222604 0 0,0 -0.41694660116249793,-0.10247533030533489 l 0.9738117146524722 -3.8200339664502527" fill="#4dd2ff" stroke="none"><title>2021-07-16 10.1 km</title></path><path d="M 94.81253420990036 170.34920634021253 l -0.751739926588741 2.948898652888597 a24.043208205535045,24.043208205535045 0 0,0 -0.40015862158608195,-0.10568552894599972 l 0.8023889909863122 -2.9355217746390156" fill="#4dd2ff" stroke="none"><title>2021-07-17 7.8 km</title></path><path d="M 94.46302465271185 170.2568976895161 l -1.2498121069345691 4.572409012745888 a25.74014287574542,25.74014287574542 0 0,0 -0.42639016357170967,-0.12050211932159023 l 1.3283334386108927 -4.550218100085777" fill="#4dd2ff" stroke="none"><title>2021-07-18 12.2 km</title></path><path d="M 94.11515582081647 170.15858648285464 l -1.8153609185715553 6.2185350980178935 a27.478094938325416,27.478094938325416 0 0,0 -0.4528979196600589,-0.1364544280152903 l 1.9221338126718601 -6.1863653008968775" fill="#4dd2ff" stroke="none"><title>2021-07-19 16.7 km</title></path><path d="M 93.76903079525671 170.05430185196036 l -0.8195882107309809 2.637835115570009 a23.762227168808433,23.762227168808433 0 0,0 -0.38956321939623234,-0.12472584084967303 l 0.8648727752181535 -2.6233364280606293" fill="#4dd2ff" stroke="none"><title>2021-07-20 7.1 km</title></path><path d="M 93.42475214034765 169.94407469862006 l -1.386199657940588 4.204627736517055 a25.42723885671003,25.42723885671003 0 0,0 -0.4145006413564997,-0.14062112248791847 l 1.4583700322343136 -4.180143627131013" fill="#4dd2ff" stroke="none"><title>2021-07-21 11.4 km</title></path><path d="M 93.08242187328487 169.82793768551818 l -0.815479539649266 2.337418848012178 a23.475587556647746,23.475587556647746 0 0,0 -0.38039444039292464,-0.13639591253896954 l 0.8555935406719173 -2.3230353944332505" fill="#4dd2ff" stroke="none"><title>2021-07-22 6.4 km</title></path><path d="M 92.7421414339146 169.70592522655815 l -1.8952895339716727 5.145930235351539 a26.483859991346215,26.483859991346215 0 0,0 -0.4264277015375938,-0.1612384687535495 l 1.9835874562695495 -5.112543516491357" fill="#4dd2ff" stroke="none"><title>2021-07-23 14.1 km</title></path><path d="M 91.40352486487194 169.15986991738527 l -1.531047377035002 3.412406610876284 a24.740137022714265,24.740137022714265 0 0,0 -0.38704413338385646,-0.17767297832056997 l 1.589559506186278 -3.3855465622216396" fill="#4dd2ff" stroke="none"><title>2021-07-27 9.6 km</title></path><path d="M 91.07499286063937 169.00905698771936 l -1.7728987125353692 3.776034252276617 a25.171523045516565,25.171523045516565 0 0,0 -0.39062288036541976,-0.18752272068875134 l 1.8376342609010312 -3.7449572550883032" fill="#4dd2ff" stroke="none"><title>2021-07-28 10.7 km</title></path><path d="M 90.7491055286396 168.85261126421892 l -1.6519105117879955 3.3664665420657727 a24.749920708202236,24.749920708202236 0 0,0 -0.38084953152462275,-0.19096586141302777 l 1.7096139509953787 -3.3375328397434427" fill="#4dd2ff" stroke="none"><title>2021-07-29 9.6 km</title></path><path d="M 90.42595943632237 168.69057910512822 l -1.9160784144002505 3.7405957221284205 a25.202786319400026,25.202786319400026 0 0,0 -0.38441341618021935,-0.20110693084542883 l 1.9801827331069655 -3.707059372338275" fill="#4dd2ff" stroke="none"><title>2021-07-30 10.8 km</title></path><path d="M 90.10565033884886 168.52300852407294 l -4.872452093631668 9.121617362871342 a31.341406708923675,31.341406708923675 0 0,0 -0.4736689301599772,-0.25828206752278254 l 5.028743835660285 -9.036394643588794" fill="#4dd2ff" stroke="none"><title>2021-07-31 26.6 km</title></path><line stroke="#FFFFFF" stroke-width="0.3" x1="58.666819895761336" x2="56.23545636021788" y1="224.27360380694188" y2="228.64263932499728" /><path d="M 58.180547188652646 225.14741091055294 a86.0,86.0 0 0,1 -31.652253787137756,-30.449443065178592" fill="none" id="id8" stroke="none" /><text fill="#FFFFFF" style="font-size:6.75px; font-family:Arial;" text-anchor="middle"><textPath startOffset="22.20632615414155" xlink:href="#id8">August</textPath></text><path d="M 89.7882731507175 168.3499491758327 l -3.43340978078272 6.169661204911347 a28.060667256439903,28.060667256439903 0 0,0 -0.42004311205121847,-0.2385114414745105 l 3.5391016597551457 -6.109646597642204" fill="#4dd2ff" stroke="none"><title>2021-08-01 18.2 km</title></path><path d="M 89.1626897886671 167.98757091392108 l -1.444057542496587 2.3968205156918936 a23.798222787857114,23.798222787857114 0 0,0 -0.34906417253832905,-0.21442372478334637 l 1.4851009149672247 -2.371608324080169" fill="#4dd2ff" stroke="none"><title>2021-08-03 7.2 km</title></path><path d="M 88.8546689885994 167.79835938074945 l -2.2372936084196624 3.57281050174057 a25.215502054515355,25.215502054515355 0 0,0 -0.3658867784063818,-0.23352625331271226 l 2.2984621888729677 -3.5337698196040535" fill="#4dd2ff" stroke="none"><title>2021-08-04 10.8 km</title></path><path d="M 88.54995079064634 167.60387380957326 l -0.8683711132230978 1.3350768383222489 a22.592638865061648,22.592638865061648 0 0,0 -0.324177795822569,-0.21484736619628575 l 0.8912236077856286 -1.3199314510346447" fill="#4dd2ff" stroke="none"><title>2021-08-05 4.1 km</title></path><path d="M 87.95078237400918 167.19931262002967 l -5.473980717904715 7.813677913840131 a30.540336862041386,30.540336862041386 0 0,0 -0.4279612636565742,-0.3053389985426714 l 5.607669309410176 -7.718294653453241" fill="#4dd2ff" stroke="none"><title>2021-08-07 24.5 km</title></path><path d="M 87.36589467227662 166.77436683061367 l -2.7220663101701965 3.614101484800416 a25.524530311468823,25.524530311468823 0 0,0 -0.3486787840503619,-0.2673520231837147 l 2.783873822714045 -3.5667101197893345" fill="#4dd2ff" stroke="none"><title>2021-08-09 11.6 km</title></path><path d="M 87.07902340077011 166.55440617244102 l -2.2611087562261982 2.896941455095772 a24.67489899204525,24.67489899204525 0 0,0 -0.33257358465021053,-0.2642165694599982 l 2.3106398335937666 -2.8575909716306436" fill="#4dd2ff" stroke="none"><title>2021-08-10 9.5 km</title></path><path d="M 86.79598089348748 166.32954008644617 l -2.742171503814778 3.391270425636391 a25.361217680433967,25.361217680433967 0 0,0 -0.3370987348137952,-0.27740930918672624 l 2.800140367173262 -3.343565997592484" fill="#4dd2ff" stroke="none"><title>2021-08-11 11.2 km</title></path><path d="M 86.51685102203217 166.09983520530335 l -1.332128291791687 1.5906555660857855 a23.07478936658918,23.07478936658918 0 0,0 -0.30231767502196744,-0.2576416812956168 l 1.359311443390711 -1.5674894945672173" fill="#4dd2ff" stroke="none"><title>2021-08-12 5.3 km</title></path><path d="M 86.24171649860922 165.8653595955263 l -2.97784296620765 3.43389852906558 a25.545240129994358,25.545240129994358 0 0,0 -0.32972536590821355,-0.2909442989030714 l 3.0365106850224515 -3.3821310883902194" fill="#4dd2ff" stroke="none"><title>2021-08-13 11.7 km</title></path><path d="M 85.97065885151581 165.6261827372986 l -9.47380449914217 10.552127769523379 a35.180986289828816,35.180986289828816 0 0,0 -0.4471343376645582,-0.4084466160037507 l 9.654038386273584 -10.387488386933052" fill="#4dd2ff" stroke="none"><title>2021-08-14 36.5 km</title></path><path d="M 85.70375840098266 165.38237550388516 l -5.62574444759313 6.053151311301477 a29.26375467854266,29.26375467854266 0 0,0 -0.3660257002491064,-0.3461001457578198 l 5.729105982233053 -5.955416528797726" fill="#4dd2ff" stroke="none"><title>2021-08-15 21.3 km</title></path><path d="M 85.18274418774928 164.88116024355367 l -2.5905314379931963 2.601703981709453 a24.671473374501566,24.671473374501566 0 0,0 -0.29835961700702246,-0.3022367168139741 l 2.634931680055752 -2.556726770914814" fill="#4dd2ff" stroke="none"><title>2021-08-17 9.4 km</title></path><path d="M 84.9287848128048 164.6239007375343 l -3.128662205236841 3.0358033484606928 a25.35942991284441,25.35942991284441 0 0,0 -0.3012862678104369,-0.3158974472726174 l 3.1804550244262355 -2.981498784605575" fill="#4dd2ff" stroke="none"><title>2021-08-18 11.2 km</title></path><path d="M 84.67929136418377 164.36230785411684 l -2.725424927298858 2.554933506642249 a24.735722989958603,24.735722989958603 0 0,0 -0.2885287712958565,-0.31314099611723994 l 2.7690001065904433 -2.5076412557236654" fill="#4dd2ff" stroke="none"><title>2021-08-19 9.6 km</title></path><path d="M 84.43433777217949 164.09645910891817 l -3.9705199374053177 3.5957526971607243 a26.356721575037454,26.356721575037454 0 0,0 -0.3016478468020458,-0.3389045536289699 l 4.031826633855702 -3.5268739737908903" fill="#4dd2ff" stroke="none"><title>2021-08-20 13.8 km</title></path><path d="M 84.19399662182784 163.82643327865904 l -4.5577239297447125 3.986907019404314 a27.055433510587246,27.055433510587246 0 0,0 -0.3036102649323641,-0.35316732939831036 l 4.625676704247855 -3.9078625908444735" fill="#4dd2ff" stroke="none"><title>2021-08-21 15.6 km</title></path><path d="M 83.72743513129214 163.27417163493433 l -1.731048958443342 1.4120847677208146 a23.233945811284805,23.233945811284805 0 0,0 -0.25013233239140414,-0.3120785442625917 l 1.7550992028896069 -1.3820783898799633" fill="#4dd2ff" stroke="none"><title>2021-08-23 5.7 km</title></path><path d="M 83.50135304334701 162.99209946851258 l -2.5887761478345133 2.0385694234651313 a24.295076211240623,24.295076211240623 0 0,0 -0.25590024919494786,-0.3307855677852055 l 2.6234832142475293 -1.9937058615666732" fill="#4dd2ff" stroke="none"><title>2021-08-24 8.5 km</title></path><path d="M 83.28015986056508 162.70617746262585 l -3.561775396046089 2.7067573545416423 a25.473564501406518,25.473564501406518 0 0,0 -0.2623033962164377,-0.35139826424030307 l 3.607840058957612 -2.645046210792031" fill="#4dd2ff" stroke="none"><title>2021-08-25 11.5 km</title></path><path d="M 83.06392112726016 162.41649034213515 l -3.6838013169870245 2.7007363285451293 a25.56775315219187,25.56775315219187 0 0,0 -0.25716314901405635,-0.35717712185589645 l 3.7297442583766887 -2.6369256012380946" fill="#4dd2ff" stroke="none"><title>2021-08-26 11.7 km</title></path><path d="M 82.6465618267979 161.8261652097733 l -2.100296244867677 1.431327333140714 a23.541641644843146,23.541641644843146 0 0,0 -0.22532366019747133,-0.33682829967953937 l 2.124623010475879 -1.3949621192553536" fill="#4dd2ff" stroke="none"><title>2021-08-28 6.5 km</title></path><path d="M 82.44556493220864 161.52570212397913 l -1.8297430483716541 1.201353006092867 a23.188882972731243,23.188882972731243 0 0,0 -0.216203357608553,-0.33555241225534954 l 1.8501512693572528 -1.1696789939160692" fill="#4dd2ff" stroke="none"><title>2021-08-29 5.6 km</title></path><path d="M 82.05923443525364 160.91462005526583 l -3.7184722125132152 2.2622062162941603 a25.35254093148736,25.35254093148736 0 0,0 -0.22360835381689628,-0.3747804629255999 l 3.7568614420283435 -2.1978636594824494" fill="#4dd2ff" stroke="none"><title>2021-08-31 11.2 km</title></path><line stroke="#FFFFFF" stroke-width="0.3" x1="26.63291911575756" x2="22.317208475507996" y1="192.92168965132927" y2="195.44649492493687" /><path d="M 25.769776987707644 193.4266507060508 a86.0,86.0 0 0,1 -11.730757126820373,-40.83630448921669" fill="none" id="id9" stroke="none" /><text fill="#FFFFFF" style="font-size:6.75px; font-family:Arial;" text-anchor="middle"><textPath startOffset="21.46611528233685" xlink:href="#id9">September</textPath></text><path d="M 81.87401531095188 160.60418214915194 l -3.532866620502287 2.0668207435428676 a25.093029995516567,25.093029995516567 0 0,0 -0.2149014931039132,-0.3746988673274387 l 3.5679201097585778 -2.005702030357122" fill="#4dd2ff" stroke="none"><title>2021-09-01 10.5 km</title></path><path d="M 81.69416730710424 160.29060199501023 l -6.178227933886192 3.4730834575337792 a28.087510783487136,28.087510783487136 0 0,0 -0.2332916419250035,-0.4234920942319572 l 6.237095985262712 -3.366220844904" fill="#4dd2ff" stroke="none"><title>2021-09-02 18.2 km</title></path><path d="M 81.51974371655577 159.97397251340806 l -12.520416882305527 6.7573897204228395 a35.22754914735484,35.22754914735484 0 0,0 -0.2834098128490549,-0.5361045601338165 l 12.634879203379468 -6.540870145202897" fill="#4dd2ff" stroke="none"><title>2021-09-03 36.6 km</title></path><path d="M 81.02952815118164 159.00673069616215 l -4.895537565988789 2.324285279838872 a26.41927948366599,26.41927948366599 0 0,0 -0.1915088067722267,-0.41249293236410794 l 4.934820989600842 -2.239672280195937" fill="#4dd2ff" stroke="none"><title>2021-09-06 13.9 km</title></path><path d="M 80.87730276802145 158.678850763441 l -3.87631494450655 1.759268502102808 a25.256858373436433,25.256858373436433 0 0,0 -0.17626751268126353,-0.39743670783192636 l 3.9060235419190934 -1.692283457778186" fill="#4dd2ff" stroke="none"><title>2021-09-07 10.9 km</title></path><path d="M 80.73074385275274 158.3483990999337 l -4.155438701178036 1.8003424962359125 a25.528675733920586,25.528675733920586 0 0,0 -0.17122328231345177,-0.40472126084906346 l 4.1858129646837945 -1.7285467097206901" fill="#4dd2ff" stroke="none"><title>2021-09-08 11.6 km</title></path><path d="M 80.58989483394504 158.01547362559984 l -4.262688264380005 1.7602926447325558 a25.611847941376922,25.611847941376922 0 0,0 -0.1647663667103489,-0.4089366097836965 l 4.292357245347741 -1.6866566671060539" fill="#4dd2ff" stroke="none"><title>2021-09-09 11.9 km</title></path><path d="M 80.45479744820244 157.68017299344265 l -2.87665157670185 1.1303634072033637 a24.090767821445933,24.090767821445933 0 0,0 -0.14833686134750362,-0.3872607368292502 l 2.895682717642863 -1.0806791035409558" fill="#4dd2ff" stroke="none"><title>2021-09-10 7.9 km</title></path><path d="M 80.32549172779594 157.3425965602758 l -9.7641578527515 3.6440184868504257 a31.42197914534262,31.42197914534262 0 0,0 -0.18475486169760033,-0.5083660303360952 l 9.825436975454325 -3.4754046595082135" fill="#4dd2ff" stroke="none"><title>2021-09-11 26.8 km</title></path><path d="M 80.0844068197444 156.66101706037122 l -3.0311398617998093 1.013802308024484 a24.196185849031238,24.196185849031238 0 0,0 -0.12870959310417915,-0.3961273957732594 l 3.0481417059202376 -0.9614760122734213" fill="#4dd2ff" stroke="none"><title>2021-09-13 8.2 km</title></path><path d="M 79.97269907076064 156.31721596034902 l -3.124893387683213 0.9856858122224906 a24.276665256751592,24.276665256751592 0 0,0 -0.12227720176166225,-0.39960897026865905 l 3.141397361951005 -0.9317498694017837" fill="#4dd2ff" stroke="none"><title>2021-09-14 8.4 km</title></path><path d="M 79.86692584326677 155.9715429329011 l -5.495925965387652 1.6301116065467953 a26.732579355475227,26.732579355475227 0 0,0 -0.127052774033474,-0.44228737416857306 l 5.52317137630723 -1.5352667568736262" fill="#4dd2ff" stroke="none"><title>2021-09-15 14.7 km</title></path><path d="M 79.76711848015287 155.62410040840567 l -5.115909112805899 1.4220607431756147 a26.30987596915141,26.30987596915141 0 0,0 -0.11753238456549539,-0.4373817260884649 l 5.139629573713169 -1.3337880839116107" fill="#4dd2ff" stroke="none"><title>2021-09-16 13.7 km</title></path><path d="M 79.67330655649465 155.2749913415812 l -4.291968275585542 1.1138110364570286 a25.434136522883144,25.434136522883144 0 0,0 -0.1063252103516172,-0.4247163622638638 l 4.310504800232218 -1.039766834795773" fill="#4dd2ff" stroke="none"><title>2021-09-17 11.4 km</title></path><path d="M 79.50377843672027 154.57218783832718 l -10.78894617150481 2.406740594671215 a32.05412863059168,32.05412863059168 0 0,0 -0.1154955455087688,-0.5395567381700402 l 10.828775755738018 -2.220670037085011" fill="#4dd2ff" stroke="none"><title>2021-09-19 28.4 km</title></path><path d="M 79.35854240842038 153.8639653848113 l -4.186303649936415 0.7836526234592144 a25.259019803161927,25.259019803161927 0 0,0 -0.07632260331121474,-0.4280576915620839 l 4.199172695586818 -0.7114761811639169" fill="#4dd2ff" stroke="none"><title>2021-09-21 11.0 km</title></path><path d="M 79.29508885075956 153.50808413554452 l -7.4134582784700465 1.256080510984272 a28.51911576561304,28.51911576561304 0 0,0 -0.0778412229929616,-0.4847173698824295 l 7.433981255824299 -1.128283911408629" fill="#4dd2ff" stroke="none"><title>2021-09-22 19.3 km</title></path><path d="M 79.23777060512086 153.15116336523772 l -4.453934814101203 0.6759908076545117 a25.504941608977425,25.504941608977425 0 0,0 -0.06214212100902667,-0.4346218496022885 l 4.464910986126828 -0.5992234860718226" fill="#4dd2ff" stroke="none"><title>2021-09-23 11.6 km</title></path><path d="M 79.10278846688536 152.07522291339032 l -11.043501540108604 1.0966883023497254 a32.09782192589572,32.09782192589572 0 0,0 -0.04986687614089958,-0.550276822875065 l 11.06074301252658 -0.9064300909260941" fill="#4dd2ff" stroke="none"><title>2021-09-26 28.5 km</title></path><path d="M 79.04373962182676 151.35467743843563 l -3.7350830845885987 0.24144731426627958 a24.742878899236025,24.742878899236025 0 0,0 -0.023816374861974028,-0.42525737209625597 l 3.7386858103381044 -0.177118225834586" fill="#4dd2ff" stroke="none"><title>2021-09-28 9.6 km</title></path><path d="M 79.0235259727143 150.99374915477108 l -4.074102657213009 0.193008418230331 a25.078671929809737,25.078671929809737 0 0,0 -0.016716567521037846,-0.4313803293199369 l 4.076821357585248 -0.12285084189639729" fill="#4dd2ff" stroke="none"><title>2021-09-29 10.5 km</title></path><path d="M 79.0095281055655 150.63252640178507 l -3.202605472627999 0.09650724033868387 a24.204059216173228,24.204059216173228 0 0,0 -0.008964650254845854,-0.41655207142589507 l 3.2037921855678526 -0.04136535312265998" fill="#4dd2ff" stroke="none"><title>2021-09-30 8.2 km</title></path><line stroke="#FFFFFF" stroke-width="0.3" x1="15.007084014347285" x2="10.007500721073583" y1="151.09737516637583" y2="151.16192664675089" /><path d="M 14.007167355692545 151.11028546245083 a86.0,86.0 0 0,1 10.666146001902534,-42.60595125391555" fill="none" id="id10" stroke="none" /><text fill="#FFFFFF" style="font-size:6.75px; font-family:Arial;" text-anchor="middle"><textPath startOffset="22.20632615414155" xlink:href="#id10">October</textPath></text><path d="M 79.00175016825051 150.2711162175752 l -5.816658161879285 0.07510103805852583 a26.81714297040002,26.81714297040002 0 0,0 -0.001986642952706501,-0.46162585740269246 l 5.8170891021214945 0.025034297547842026" fill="#4dd2ff" stroke="none"><title>2021-10-01 15.0 km</title></path><path d="M 79.00486145842228 149.54816195383935 l -6.4232205783636 -0.13823464086408377 a27.424707885518878,27.424707885518878 0 0,0 0.014219457091533797,-0.471874555104149 l 6.419889426816422 0.24877934339322721" fill="#4dd2ff" stroke="none"><title>2021-10-03 16.5 km</title></path><path d="M 79.03285615573316 148.82574320788734 l -2.895772279783435 -0.1621766079921753 a23.90031004351983,23.90031004351983 0 0,0 0.026540052620293828,-0.4105628671305945 l 2.8925516361587285 0.2119985393757816" fill="#4dd2ff" stroke="none"><title>2021-10-05 7.5 km</title></path><path d="M 79.05617556472873 148.46500227214037 l -4.302475465350634 -0.3153335286922491 a25.3140155730203,25.3140155730203 0 0,0 0.03559092268546256,-0.4342994052640371 l 4.296410058845674 0.3893468511640646" fill="#4dd2ff" stroke="none"><title>2021-10-06 11.1 km</title></path><path d="M 79.08570108090925 148.10471618934815 l -2.1606277374378138 -0.19579918922710238 a23.169481399387337,23.169481399387337 0 0,0 0.039413355811345446,-0.39688711429753254 l 2.1569372559442397 0.2329618342290652" fill="#4dd2ff" stroke="none"><title>2021-10-07 5.6 km</title></path><path d="M 79.12142395522702 147.74499172005258 l -4.321283990253552 -0.466723935441257 a25.34641536859231,25.34641536859231 0 0,0 0.05058377717724345,-0.43337091186247745 l 4.31260986007272 0.5410385856285962" fill="#4dd2ff" stroke="none"><title>2021-10-08 11.2 km</title></path><path d="M 79.54389044137918 145.25157060432596 l -0.9273890541744164 -0.2152726760408028 a21.95204662850739,21.95204662850739 0 0,0 0.08861016767821873,-0.36734635145519257 l 0.9235460862353829 0.23120425915539217" fill="#4dd2ff" stroke="none"><title>2021-10-15 2.4 km</title></path><path d="M 79.62865764111835 144.90015583598534 l -61.114027076644945 -15.299532492043955 a84.0,84.0 0 0,0 0.3632146725187706,-1.3996142978045447 l 60.84161607225587 16.349243215397365" fill="#4dd2ff" stroke="none"><title>2021-10-16 162.0 km</title></path><path d="M 80.02781315780177 143.5106431181261 l -1.2466828579107325 -0.4050718154911264 a22.31083993069854,22.31083993069854 0 0,0 0.12182006117517602,-0.3642264773637206 l 1.2395255029637842 0.4264713957771692" fill="#4dd2ff" stroke="none"><title>2021-10-20 3.4 km</title></path><path d="M 80.14247586403 143.16781622104844 l -1.9295022810513769 -0.663864945890714 a23.040513591957904,23.040513591957904 0 0,0 0.132260139527154,-0.3739172247851992 l 1.9177890607144132 0.6969797971025242" fill="#4dd2ff" stroke="none"><title>2021-10-21 5.2 km</title></path><path d="M 80.2630227832202 142.82701384747503 l -4.120927567563442 -1.497663803987189 a25.38463691619702,25.38463691619702 0 0,0 0.15278579184569036,-0.40938996182984666 l 4.094537187216124 1.568376902846377" fill="#4dd2ff" stroke="none"><title>2021-10-22 11.3 km</title></path><path d="M 80.38941819471856 142.48833698450437 l -3.327469791560371 -1.2745583999813535 a24.56322246410603,24.56322246410603 0 0,0 0.15463887835455992,-0.3935390781435815 l 3.30503736332412 1.3316464830206984" fill="#4dd2ff" stroke="none"><title>2021-10-23 9.2 km</title></path><path d="M 80.52162464483688 142.15188598940014 l -5.109805363115767 -2.0588131366447464 a26.508976527500153,26.508976527500153 0 0,0 0.17417446969703798,-0.4217772937663846 l 5.07360920653253 2.1464650008644424" fill="#4dd2ff" stroke="none"><title>2021-10-24 14.2 km</title></path><path d="M 80.803312248108 141.48605970444007 l -5.188556390652847 -2.3011813236275867 a26.67596272919378,26.67596272919378 0 0,0 0.1897774773577875,-0.4181495153999903 l 5.148176596331708 2.390152847869648" fill="#4dd2ff" stroke="none"><title>2021-10-26 14.6 km</title></path><path d="M 80.95270993114464 141.15688171328213 l -4.358904059961239 -2.0237159230183575 a25.805774728493276,25.805774728493276 0 0,0 0.19052256777230864,-0.4012891170410174 l 4.32342329834718 2.098447455699907" fill="#4dd2ff" stroke="none"><title>2021-10-27 12.4 km</title></path><path d="M 81.26839172434947 140.50648371742162 l -3.9992849646958213 -2.026909615676987 a25.483597084815482,25.483597084815482 0 0,0 0.20167302117355956,-0.38956808567394113 l 3.963802510362148 2.095450423611264" fill="#4dd2ff" stroke="none"><title>2021-10-29 11.5 km</title></path><path d="M 81.43458229118936 140.18545643968196 l -2.8617923267215515 -1.512876569314311 a24.237074425351167,24.237074425351167 0 0,0 0.19815758940342412,-0.3671559182423994 l 2.8353266380996556 1.561913470889183" fill="#4dd2ff" stroke="none"><title>2021-10-30 8.3 km</title></path><path d="M 81.6062741919709 139.86733742301442 l -0.6652507323317204 -0.36647067973947045 a21.759512538393277,21.759512538393277 0 0,0 0.18354911311323402,-0.3265133912680255 l 0.6588439779260556 0.3778675809422805" fill="#4dd2ff" stroke="none"><title>2021-10-31 2.0 km</title></path><line stroke="#FFFFFF" stroke-width="0.3" x1="26.266209847984243" x2="21.928928074336255" y1="107.71137044288967" y2="105.22380399835377" /><path d="M 25.398753493254645 107.2138571539825 a86.0,86.0 0 0,1 29.58750427330803,-30.492523968695096" fill="none" id="id11" stroke="none" /><text fill="#FFFFFF" style="font-size:6.75px; font-family:Arial;" text-anchor="middle"><textPath startOffset="21.46611528233685" xlink:href="#id11">November</textPath></text><path d="M 81.78341655067845 139.5522209329492 l -5.479414886198108 -3.142615425497869 a27.316646199342383,27.316646199342383 0 0,0 0.23744711855271042,-0.40587409522093515 l 5.424508093175072 3.2364689330726963" fill="#4dd2ff" stroke="none"><title>2021-11-01 16.2 km</title></path><path d="M 81.96595687620814 139.2402003453031 l -7.371918705824681 -4.398368563327909 a29.584336399755024,29.584336399755024 0 0,0 0.2646871156047613,-0.43507602326320693 l 7.2951157919337035 4.524612359798191" fill="#4dd2ff" stroke="none"><title>2021-11-02 22.1 km</title></path><path d="M 83.39014120810768 137.1503855733568 l -0.8708055559456707 -0.6736671138915655 a22.100967618327097,22.100967618327097 0 0,0 0.23537101060779228,-0.2988972811715377 l 0.8590804647439074 0.688556789016151" fill="#4dd2ff" stroke="none"><title>2021-11-09 2.8 km</title></path><path d="M 83.6137871275137 136.86637796730983 l -4.600633010460845 -3.687427689406196 a26.89601111443504,26.89601111443504 0 0,0 0.29265614746564345,-0.35876183274048673 l 4.536478370918808 3.766073691754765" fill="#4dd2ff" stroke="none"><title>2021-11-10 15.2 km</title></path><path d="M 83.84228863543731 136.58626213691792 l -2.4848725828283333 -2.062880608346669 a24.229561604488243,24.229561604488243 0 0,0 0.2691666458184282,-0.31860840911854416 l 2.4489953235227806 2.105347967094329" fill="#4dd2ff" stroke="none"><title>2021-11-11 8.3 km</title></path><path d="M 84.07557802195018 136.31012108654704 l -3.434141916261672 -2.9522570470713605 a25.5287031668026,25.5287031668026 0 0,0 0.28933519361929005,-0.3307601429523643 l 3.382814859064539 3.010932746226668" fill="#4dd2ff" stroke="none"><title>2021-11-12 11.6 km</title></path><path d="M 84.80347519578584 135.5063588468976 l -2.3555436204722806 -2.2465928490530547 a24.255113696534114,24.255113696534114 0 0,0 0.29075613835055203,-0.29964975875635913 l 2.3165232184186104 2.2868068033595375" fill="#4dd2ff" stroke="none"><title>2021-11-15 8.4 km</title></path><path d="M 85.05521093208273 135.24692304244772 l -2.6103556495628695 -2.5768699450737254 a24.667998818297118,24.667998818297118 0 0,0 0.30090753232203543,-0.2996153397501458 l 2.5656123170735206 2.6214211354739807" fill="#4dd2ff" stroke="none"><title>2021-11-16 9.4 km</title></path><path d="M 85.31137513191541 134.99185889309783 l -2.4611589548372206 -2.5146956377768515 a24.51866417147607,24.51866417147607 0 0,0 0.30416775528138723,-0.2926091395888947 l 2.417507955943406 2.5566878641280595" fill="#4dd2ff" stroke="none"><title>2021-11-17 9.0 km</title></path><path d="M 85.57189188830299 134.74124197986015 l -1.9460020437320167 -2.0580365812432184 a23.83239095534929,23.83239095534929 0 0,0 0.30050615406167946,-0.2792877198565481 l 1.910288005875481 2.091228887174414" fill="#4dd2ff" stroke="none"><title>2021-11-18 7.3 km</title></path><path d="M 85.83668400450813 134.4951465659348 l -3.0027890522115017 -3.2872107183638426 a25.452246219494985,25.452246219494985 0 0,0 0.3260178368593394,-0.29270203290744834 l 2.945760227756191 3.33841176004057" fill="#4dd2ff" stroke="none"><title>2021-11-19 11.5 km</title></path><path d="M 86.37877921826538 134.01681056812373 l -9.29273384014411 -10.904127294243573 a35.326719592175564,35.326719592175564 0 0,0 0.46621590852049466,-0.3904424157341562 l 9.103660394664505 11.062470867371541" fill="#4dd2ff" stroke="none"><title>2021-11-21 36.8 km</title></path><path d="M 86.93701828274178 133.5574178227817 l -2.1838709834705714 -2.7488730281783034 a24.510782732880358,24.510782732880358 0 0,0 0.3326083393538755,-0.25960608461175677 l 2.1362300889572703 2.786057502013282" fill="#4dd2ff" stroke="none"><title>2021-11-23 9.0 km</title></path><path d="M 87.80319425747018 132.90503203632744 l -2.614066402650219 -3.6638594031546297 a25.500800915787018,25.500800915787018 0 0,0 0.35952347937338164,-0.2518691729330172 l 2.550611783693177 3.7083134188515894" fill="#4dd2ff" stroke="none"><title>2021-11-26 11.6 km</title></path><path d="M 88.39885842347998 132.49532879139005 l -9.123983212449001 -13.766949156972988 a37.515930453708336,37.515930453708336 0 0,0 0.5413601898027178,-0.3521157263610465 l 8.885655996861997 13.921963807493569" fill="#4dd2ff" stroke="none"><title>2021-11-28 42.5 km</title></path><line stroke="#FFFFFF" stroke-width="0.3" x1="56.762969772571076" x2="54.21961505331055" y1="76.8183136494355" y2="72.51350856999053" /><path d="M 56.25429882871897 75.9573526335465 a86.0,86.0 0 0,1 42.265352541879196,-11.944610805530505" fill="none" id="id12" stroke="none" /><text fill="#FFFFFF" style="font-size:6.75px; font-family:Arial;" text-anchor="middle"><textPath startOffset="22.20632615414155" xlink:href="#id12">December</textPath></text><path d="M 89.3179101791058 131.91981866633114 l -2.2350652228723473 -3.783003625663794 a25.39393138115274,25.39393138115274 0 0,0 0.3782526053131439,-0.21910832351368065 l 2.1696158850938834 3.8209161065675215" fill="#4dd2ff" stroke="none"><title>2021-12-01 11.3 km</title></path><path d="M 89.63071344664047 131.7386228237212 l -2.3212955540959017 -4.088039561143245 a25.701114814906955,25.701114814906955 0 0,0 0.3865887168582228,-0.2151362023808795 l 2.2505827481656335 4.127391161084309" fill="#4dd2ff" stroke="none"><title>2021-12-02 12.1 km</title></path><path d="M 89.94658935756843 131.56283822128137 l -2.1260647034328617 -3.89903489307131 a25.441016124781655,25.441016124781655 0 0,0 0.38628542917808995,-0.20634029835534945 l 2.0586342277264666 3.935053917928409" fill="#4dd2ff" stroke="none"><title>2021-12-03 11.4 km</title></path><path d="M 90.58718382345135 131.22770947309562 l -1.8441497627457877 -3.677848846940864 a25.114299513693624,25.114299513693624 0 0,0 0.3881100857666508,-0.1904439335420984 l 1.780568409968711 3.709047940617792" fill="#4dd2ff" stroke="none"><title>2021-12-05 10.6 km</title></path><path d="M 90.91171255644093 131.06846463323043 l -0.5284251528653813 -1.1007463762880225 a22.22101422067559,22.22101422067559 0 0,0 0.34624762000125253,-0.16256790026429202 l 0.5093993215645203 1.1096792591923221" fill="#4dd2ff" stroke="none"><title>2021-12-06 3.1 km</title></path><path d="M 91.23893434514133 130.91482961587045 l -2.7789043039949535 -6.053585740853595 a27.660946588333196,27.660946588333196 0 0,0 0.4344321335698933,-0.19491703494007112 l 2.6742900519582857 6.100523106310195" fill="#4dd2ff" stroke="none"><title>2021-12-07 17.1 km</title></path><path d="M 91.56875222667455 130.76684994638697 l -1.8410230453004426 -4.19969539911376 a25.585499678188256,25.585499678188256 0 0,0 0.40487986229108563,-0.17334842721526703 l 1.7684594252190486 4.230763354291813" fill="#4dd2ff" stroke="none"><title>2021-12-08 11.8 km</title></path><path d="M 91.90106846888425 130.62456947434976 l -1.5263219534397083 -3.6514872184098652 a24.95765304337844,24.95765304337844 0 0,0 0.3977966214683529,-0.16227122997526883 l 1.463241462382975 3.677219334568711" fill="#4dd2ff" stroke="none"><title>2021-12-09 10.2 km</title></path><path d="M 92.23578459929587 130.48803036053334 l -1.5350380663100371 -3.857648789928051 a25.151842488757758,25.151842488757758 0 0,0 0.4036473499994192,-0.15660890076193842 l 1.4684075513109416 3.883500394580541" fill="#4dd2ff" stroke="none"><title>2021-12-10 10.7 km</title></path><path d="M 92.57280143429618 130.35727306442388 l -1.4145558978637698 -3.741078818755628 a24.99957986747648,24.99957986747648 0 0,0 0.40382377806229847,-0.1487317054693983 l 1.3499497940289018 3.7648737920313486" fill="#4dd2ff" stroke="none"><title>2021-12-11 10.3 km</title></path><path d="M 93.25333710446033 130.11325718540243 l -1.5024010222706907 -4.428539441927426 a25.676448483670796,25.676448483670796 0 0,0 0.4197698013453346,-0.13839150371982567 l 1.4259483986829469 4.453744669906485" fill="#4dd2ff" stroke="none"><title>2021-12-13 12.0 km</title></path><path d="M 93.94186890950719 129.89281104454417 l -0.3707694499526808 -1.2305992190906065 a22.28524099804069,22.28524099804069 0 0,0 0.3682474584148183,-0.10750153112147837 l 0.3495317738144412 1.236799079130784" fill="#4dd2ff" stroke="none"><title>2021-12-15 3.3 km</title></path><path d="M 94.28887869178378 129.79150937346287 l -0.7425436928622092 -2.6274502759050984 a23.73036006566226,23.73036006566226 0 0,0 0.39403936401797685,-0.10770584310932364 l 0.69720643962051 2.639842659840718" fill="#4dd2ff" stroke="none"><title>2021-12-16 7.0 km</title></path><path d="M 94.63758080256005 129.69619591428918 l -1.4926513812612872 -5.651647157287391 a26.845436145956594,26.845436145956594 0 0,0 0.44779607910966773,-0.11415319116066784 l 1.39514641346662 5.676503344616922" fill="#4dd2ff" stroke="none"><title>2021-12-17 15.0 km</title></path><path d="M 96.40284397218896 129.31037775812274 l -0.7626067961852359 -4.386255811584072 a25.452056734840983,25.452056734840983 0 0,0 0.4322859657625645,-0.07133088831990606 l 0.6869916242837857 4.398732962843606" fill="#4dd2ff" stroke="none"><title>2021-12-22 11.4 km</title></path><path d="M 97.11714578562143 129.19881850522333 l -0.6305524894312052 -4.549739875579905 a25.593226467023996,25.593226467023996 0 0,0 0.4368949875424275,-0.05672150835310925 l 0.55214277338092 4.55991970709715" fill="#4dd2ff" stroke="none"><title>2021-12-24 11.8 km</title></path><path d="M 98.91598698831166 129.02799685794201 l -0.23597138818749727 -4.5652521151902885 a25.571346559963764,25.571346559963764 0 0,0 0.4397774399181254,-0.018937741659295595 l 0.15735311588004777 4.568637583373777" fill="#4dd2ff" stroke="none"><title>2021-12-29 11.8 km</title></path></g></g></svg>